<svg version="1.1" xmlns="http://www.w3.org/2000/svg" xmlns:xlink="http://www.w3.org/1999/xlink" width="325" height="313" viewBox="0,0,325,313"><defs><linearGradient x1="91.5" y1="189.5" x2="414.5" y2="189.5" gradientUnits="userSpaceOnUse" id="color-1"><stop offset="0" stop-color="#8f00f0"/><stop offset="1" stop-color="#00b295"/></linearGradient><linearGradient x1="221.5" y1="201" x2="247.5" y2="201" gradientUnits="userSpaceOnUse" id="color-2"><stop offset="0" stop-color="#00b295"/><stop offset="1" stop-color="#8f00f0"/></linearGradient><linearGradient x1="268.5" y1="200.5" x2="295.5" y2="200.5" gradientUnits="userSpaceOnUse" id="color-3"><stop offset="0" stop-color="#00b295"/><stop offset="1" stop-color="#8f00f0"/></linearGradient></defs><g transform="translate(-90.5,-33)"><g data-paper-data="{&quot;isPaintingLayer&quot;:true}" fill-rule="nonzero" stroke="#000000" stroke-width="2" stroke-linejoin="miter" stroke-miterlimit="10" stroke-dasharray="" stroke-dashoffset="0" style="mix-blend-mode: normal"><path d="M91.5,345v-311h323v311z" fill="url(#color-1)" stroke-linecap="butt"/><path d="M257.5,35l1,309" fill="none" stroke-linecap="round"/><path d="M247.5,201c0,19.32997 -5.8203,35 -13,35c-7.1797,0 -13,-15.67003 -13,-35c0,-19.32997 5.8203,-35 13,-35c7.1797,0 13,15.67003 13,35z" fill="url(#color-2)" stroke-linecap="butt"/><path d="M295.5,200.5c0,19.60611 -6.04416,35.5 -13.5,35.5c-7.45584,0 -13.5,-15.89389 -13.5,-35.5c0,-19.60611 6.04416,-35.5 13.5,-35.5c7.45584,0 13.5,15.89389 13.5,35.5z" fill="url(#color-3)" stroke-linecap="butt"/></g></g></svg>