<svg version="1.1" xmlns="http://www.w3.org/2000/svg" xmlns:xlink="http://www.w3.org/1999/xlink" width="276" height="318" viewBox="0,0,276,318"><defs><linearGradient x1="234.5" y1="21" x2="234.5" y2="334" gradientUnits="userSpaceOnUse" id="color-1"><stop offset="0" stop-color="#f04c1d"/><stop offset="1" stop-color="#f0ec5f"/></linearGradient></defs><g transform="translate(-96.5,-19)"><g data-paper-data="{&quot;isPaintingLayer&quot;:true}" fill-rule="nonzero" stroke="#000000" stroke-width="2" stroke-linejoin="miter" stroke-miterlimit="10" stroke-dasharray="" stroke-dashoffset="0" style="mix-blend-mode: normal"><path d="M97.5,334v-313h274v313z" fill="url(#color-1)" stroke-linecap="butt"/><path d="M237.37989,336l2.64804,-316" fill="none" stroke-linecap="round"/><path d="M212.5,195.5c0,18.77768 -2.91015,34 -6.5,34c-3.58985,0 -6.5,-15.22232 -6.5,-34c0,-18.77768 2.91015,-34 6.5,-34c3.58985,0 6.5,15.22232 6.5,34z" fill="none" stroke-linecap="butt"/><path d="M261.5,194c0,16.2924 -2.91015,29.5 -6.5,29.5c-3.58985,0 -6.5,-13.2076 -6.5,-29.5c0,-16.2924 2.91015,-29.5 6.5,-29.5c3.58985,0 6.5,13.2076 6.5,29.5z" fill="none" stroke-linecap="butt"/></g></g></svg>