<svg version="1.1" xmlns="http://www.w3.org/2000/svg" xmlns:xlink="http://www.w3.org/1999/xlink" width="276" height="289" viewBox="0,0,276,289"><defs><radialGradient cx="255.5" cy="194" r="143" gradientUnits="userSpaceOnUse" id="color-1"><stop offset="0" stop-color="#5ff078"/><stop offset="1" stop-color="#270047"/></radialGradient><radialGradient cx="235.5" cy="201.5" r="24.5" gradientUnits="userSpaceOnUse" id="color-2"><stop offset="0" stop-color="#5ff078"/><stop offset="1" stop-color="#f0ec5f"/></radialGradient><radialGradient cx="274" cy="203.5" r="22.5" gradientUnits="userSpaceOnUse" id="color-3"><stop offset="0" stop-color="#5ff078"/><stop offset="1" stop-color="#f0ec5f"/></radialGradient></defs><g transform="translate(-117.5,-49)"><g data-paper-data="{&quot;isPaintingLayer&quot;:true}" fill-rule="nonzero" stroke="#000000" stroke-width="2" stroke-linejoin="miter" stroke-miterlimit="10" stroke-dasharray="" stroke-dashoffset="0" style="mix-blend-mode: normal"><path d="M118.5,337v-286h274v286z" fill="url(#color-1)" stroke-linecap="butt"/><path d="M260.5,50l-5,280" fill="none" stroke-linecap="round"/><path d="M244.5,201.5c0,13.53098 -4.02944,24.5 -9,24.5c-4.97056,0 -9,-10.96902 -9,-24.5c0,-13.53098 4.02944,-24.5 9,-24.5c4.97056,0 9,10.96902 9,24.5z" fill="url(#color-2)" stroke-linecap="butt"/><path d="M282.5,203.5c0,12.42641 -3.80558,22.5 -8.5,22.5c-4.69442,0 -8.5,-10.07359 -8.5,-22.5c0,-12.42641 3.80558,-22.5 8.5,-22.5c4.69442,0 8.5,10.07359 8.5,22.5z" fill="url(#color-3)" stroke-linecap="butt"/></g></g></svg>