<svg version="1.1" xmlns="http://www.w3.org/2000/svg" xmlns:xlink="http://www.w3.org/1999/xlink" width="335" height="282" viewBox="0,0,335,282"><defs><linearGradient x1="243" y1="45" x2="243" y2="325" gradientUnits="userSpaceOnUse" id="color-1"><stop offset="0" stop-color="#bd00ec"/><stop offset="1" stop-color="#ec0000"/></linearGradient><linearGradient x1="224" y1="169" x2="224" y2="217" gradientUnits="userSpaceOnUse" id="color-2"><stop offset="0" stop-color="#7e0000"/><stop offset="1" stop-color="#65007e"/></linearGradient><linearGradient x1="271.5" y1="168" x2="271.5" y2="218" gradientUnits="userSpaceOnUse" id="color-3"><stop offset="0" stop-color="#7e0000"/><stop offset="1" stop-color="#65007e"/></linearGradient></defs><g transform="translate(-75.5,-44)"><g data-paper-data="{&quot;isPaintingLayer&quot;:true}" fill-rule="nonzero" stroke="#000000" stroke-width="2" stroke-linejoin="miter" stroke-miterlimit="10" stroke-dasharray="" stroke-dashoffset="0" style="mix-blend-mode: normal"><path d="M76.5,325v-280h333v280z" fill="url(#color-1)" stroke-linecap="butt"/><path d="M247.5,45l-3,279" fill="none" stroke-linecap="round"/><path d="M231.5,193c0,13.25483 -3.35786,24 -7.5,24c-4.14214,0 -7.5,-10.74517 -7.5,-24c0,-13.25483 3.35786,-24 7.5,-24c4.14214,0 7.5,10.74517 7.5,24z" fill="url(#color-2)" stroke-linecap="butt"/><path d="M278.5,193c0,13.80712 -3.13401,25 -7,25c-3.86599,0 -7,-11.19288 -7,-25c0,-13.80712 3.13401,-25 7,-25c3.86599,0 7,11.19288 7,25z" fill="url(#color-3)" stroke-linecap="butt"/></g></g></svg>