<svg version="1.1" xmlns="http://www.w3.org/2000/svg" xmlns:xlink="http://www.w3.org/1999/xlink" width="275" height="291" viewBox="0,0,275,291"><defs><linearGradient x1="245" y1="41" x2="245" y2="328" gradientUnits="userSpaceOnUse" id="color-1"><stop offset="0" stop-color="#ea1cf0"/><stop offset="1" stop-color="#f0ec5f"/></linearGradient><linearGradient x1="222" y1="157" x2="222" y2="220" gradientUnits="userSpaceOnUse" id="color-2"><stop offset="0" stop-color="#ea1cf0"/><stop offset="1" stop-color="#f0ec5f"/></linearGradient><linearGradient x1="270.5" y1="159" x2="270.5" y2="221" gradientUnits="userSpaceOnUse" id="color-3"><stop offset="0" stop-color="#ea1cf0"/><stop offset="1" stop-color="#f0ec5f"/></linearGradient></defs><g transform="translate(-107.5,-38)"><g data-paper-data="{&quot;isPaintingLayer&quot;:true}" fill-rule="nonzero" stroke="#000000" stroke-width="2" stroke-linejoin="miter" stroke-miterlimit="10" stroke-dasharray="" stroke-dashoffset="0" style="mix-blend-mode: normal"><path d="M108.5,328v-287h273v287z" fill="url(#color-1)" stroke-linecap="butt"/><path d="M247.5,39l2,288" fill="none" stroke-linecap="round"/><path d="M230.5,188.5c0,17.39697 -3.80558,31.5 -8.5,31.5c-4.69442,0 -8.5,-14.10303 -8.5,-31.5c0,-17.39697 3.80558,-31.5 8.5,-31.5c4.69442,0 8.5,14.10303 8.5,31.5z" fill="url(#color-2)" stroke-linecap="butt"/><path d="M281.5,190c0,17.12083 -4.92487,31 -11,31c-6.07513,0 -11,-13.87917 -11,-31c0,-17.12083 4.92487,-31 11,-31c6.07513,0 11,13.87917 11,31z" fill="url(#color-3)" stroke-linecap="butt"/></g></g></svg>