<svg version="1.1" xmlns="http://www.w3.org/2000/svg" xmlns:xlink="http://www.w3.org/1999/xlink" width="281.48553" height="343" viewBox="0,0,281.48553,343"><defs><linearGradient x1="232.75723" y1="6" x2="232.75723" y2="334" gradientUnits="userSpaceOnUse" id="color-1"><stop offset="0" stop-color="#30f01d"/><stop offset="1" stop-color="#f00000"/></linearGradient><linearGradient x1="206" y1="155" x2="206" y2="234" gradientUnits="userSpaceOnUse" id="color-2"><stop offset="0" stop-color="#30f01d"/><stop offset="1" stop-color="#f00000"/></linearGradient><linearGradient x1="260.5" y1="155" x2="260.5" y2="232" gradientUnits="userSpaceOnUse" id="color-3"><stop offset="0" stop-color="#30f01d"/><stop offset="1" stop-color="#f00000"/></linearGradient></defs><g transform="translate(-92.01447,-3)"><g data-paper-data="{&quot;isPaintingLayer&quot;:true}" fill-rule="nonzero" stroke="#000000" stroke-width="2" stroke-linejoin="miter" stroke-miterlimit="10" stroke-dasharray="" stroke-dashoffset="0" style="mix-blend-mode: normal"><path d="M93.01447,334v-328h279.48553v328z" fill="url(#color-1)" stroke-linecap="butt"/><path d="M234.5,4l-2,341" fill="none" stroke-linecap="round"/><path d="M219.5,194.5c0,21.81525 -6.04416,39.5 -13.5,39.5c-7.45584,0 -13.5,-17.68475 -13.5,-39.5c0,-21.81525 6.04416,-39.5 13.5,-39.5c7.45584,0 13.5,17.68475 13.5,39.5z" fill="url(#color-2)" stroke-linecap="butt"/><path d="M274.5,193.5c0,21.26296 -6.26801,38.5 -14,38.5c-7.73199,0 -14,-17.23704 -14,-38.5c0,-21.26296 6.26801,-38.5 14,-38.5c7.73199,0 14,17.23704 14,38.5z" fill="url(#color-3)" stroke-linecap="butt"/></g></g></svg>