<svg version="1.1" xmlns="http://www.w3.org/2000/svg" xmlns:xlink="http://www.w3.org/1999/xlink" width="257" height="287" viewBox="0,0,257,287"><defs><radialGradient cx="238" cy="189.5" r="142.5" gradientUnits="userSpaceOnUse" id="color-1"><stop offset="0" stop-color="#002df0"/><stop offset="1" stop-color="#00f093"/></radialGradient><radialGradient cx="216.5" cy="191.5" r="34.5" gradientUnits="userSpaceOnUse" id="color-2"><stop offset="0" stop-color="#002df0"/><stop offset="1" stop-color="#00f093"/></radialGradient><radialGradient cx="268.5" cy="193.5" r="33.5" gradientUnits="userSpaceOnUse" id="color-3"><stop offset="0" stop-color="#002df0"/><stop offset="1" stop-color="#00f093"/></radialGradient></defs><g transform="translate(-109.5,-46)"><g data-paper-data="{&quot;isPaintingLayer&quot;:true}" fill-rule="nonzero" stroke="#000000" stroke-width="2" stroke-linejoin="miter" stroke-miterlimit="10" stroke-dasharray="" stroke-dashoffset="0" style="mix-blend-mode: normal"><path d="M110.5,332v-285h255v285z" fill="url(#color-1)" stroke-linecap="butt"/><path d="M241.5,47l2,284" fill="none" stroke-linecap="round"/><path d="M233.5,191.5c0,19.05382 -7.61116,34.5 -17,34.5c-9.38884,0 -17,-15.44618 -17,-34.5c0,-19.05382 7.61116,-34.5 17,-34.5c9.38884,0 17,15.44618 17,34.5z" fill="url(#color-2)" stroke-linecap="butt"/><path d="M285.5,193.5c0,18.50154 -7.61116,33.5 -17,33.5c-9.38884,0 -17,-14.99846 -17,-33.5c0,-18.50154 7.61116,-33.5 17,-33.5c9.38884,0 17,14.99846 17,33.5z" fill="url(#color-3)" stroke-linecap="butt"/></g></g></svg>